<mxfile host="app.diagrams.net" modified="2023-08-17T07:59:44.595Z" agent="Mozilla/5.0 (Windows NT 10.0; Win64; x64) AppleWebKit/537.36 (KHTML, like Gecko) Chrome/115.0.0.0 Safari/537.36" version="21.6.8" etag="SOjTMErB915X_W3V1Cq-" type="github">
  <diagram name="第 1 页" id="KTv4wt4sZlsce8AIfqOw">
    <mxGraphModel>
      <root>
        <mxCell id="0" />
        <mxCell id="1" parent="0" />
      </root>
    </mxGraphModel>
  </diagram>
</mxfile>
